<svg width="14" height="14" viewBox="0 0 14 14" fill="none" xmlns="http://www.w3.org/2000/svg">
<rect width="14" height="14" fill="url(#paint0_linear)"/>
<g clip-path="url(#clip0)">
<path d="M7 2.48828C4.88906 2.48828 3.17188 3.94805 3.17188 5.74219V6.05208C3.17188 6.07842 3.17971 6.1043 3.19484 6.12723L4.99479 8.88128V11.9401C4.99479 12.0258 5.07646 12.0951 5.17708 12.0951H8.82292C8.92354 12.0951 9.00521 12.0258 9.00521 11.9401V8.88128L10.8052 6.12739C10.8203 6.1043 10.8281 6.07842 10.8281 6.05208V5.74219C10.8281 3.94805 9.11094 2.48828 7 2.48828ZM7 2.79818C8.74581 2.79818 10.1903 3.90296 10.426 5.33266C10.3082 5.25069 10.1697 5.19011 10.0188 5.1554C9.69956 3.964 8.4494 3.10807 7 3.10807V3.41797C8.2394 3.41797 9.31474 4.12639 9.63648 5.12658C9.29706 5.1523 9.00193 5.31004 8.82292 5.53921C8.62677 5.28819 8.29172 5.1224 7.91146 5.1224C7.5312 5.1224 7.19615 5.28834 7 5.53921C6.80385 5.28819 6.4688 5.1224 6.08854 5.1224C5.70828 5.1224 5.37323 5.28834 5.17708 5.53921C4.98094 5.28819 4.64589 5.1224 4.26563 5.1224C4.00349 5.1224 3.76268 5.20142 3.57401 5.33266C3.80971 3.90296 5.25419 2.79818 7 2.79818V2.79818ZM8.71573 8.6862H8.15135L8.99865 6.09361C9.00302 6.08013 9.00521 6.06618 9.00521 6.05208C9.00521 5.71027 9.33224 5.43229 9.73438 5.43229C10.1228 5.43229 10.4384 5.69245 10.4595 6.01815L8.71573 8.6862ZM3.54047 6.01815C3.56161 5.69245 3.87716 5.43229 4.26563 5.43229C4.66776 5.43229 4.99479 5.71027 4.99479 6.05208C4.99479 6.06618 4.99698 6.08013 5.00154 6.09361L5.84883 8.6862H5.28445L3.54047 6.01815ZM6.22708 8.6862L5.35974 6.03209C5.37214 5.69958 5.69424 5.43229 6.08854 5.43229C6.49068 5.43229 6.81771 5.71027 6.81771 6.05208V8.6862H6.22708ZM6.81771 8.99609H7.18229V9.92578H6.81771V8.99609ZM7.18229 8.6862V6.05208C7.18229 5.71027 7.50932 5.43229 7.91146 5.43229C8.30576 5.43229 8.62786 5.69958 8.64026 6.03209L7.77292 8.6862H7.18229ZM8.64063 11.7852H5.35938V8.99609H6.45313V10.0807C6.45313 10.1664 6.53479 10.2357 6.63542 10.2357H7.36458C7.46521 10.2357 7.54688 10.1664 7.54688 10.0807V8.99609H8.64063V11.7852Z" fill="white"/>
<path d="M6.65802 3.43594L6.61281 3.12853C6.48156 3.14247 6.35122 3.16354 6.22544 3.19097L6.3164 3.49126C6.42723 3.46678 6.54226 3.44818 6.65802 3.43594V3.43594Z" fill="white"/>
</g>
<defs>
<linearGradient id="paint0_linear" x1="-4.95833" y1="-4.08333" x2="12.5417" y2="14" gradientUnits="userSpaceOnUse">
<stop stop-color="#90F7EC"/>
<stop offset="1" stop-color="#32CCBC"/>
</linearGradient>
<clipPath id="clip0">
<rect width="11.6667" height="9.91667" fill="white" transform="translate(1.16667 2.33333)"/>
</clipPath>
</defs>
</svg>
